<svg xmlns="http://www.w3.org/2000/svg" viewBox="0 0 256 256" width="256" height="256">
  <!-- Background gradient -->
  <defs>
    <linearGradient id="bgGradient" x1="0%" y1="0%" x2="100%" y2="100%">
      <stop offset="0%" style="stop-color:#2563eb;stop-opacity:1" />
      <stop offset="100%" style="stop-color:#60a5fa;stop-opacity:1" />
    </linearGradient>
    <linearGradient id="carGradient" x1="0%" y1="0%" x2="100%" y2="100%">
      <stop offset="0%" style="stop-color:#ffffff;stop-opacity:1" />
      <stop offset="100%" style="stop-color:#e0f2fe;stop-opacity:1" />
    </linearGradient>
  </defs>
  
  <!-- Rounded square background -->
  <rect width="256" height="256" rx="60" fill="url(#bgGradient)"/>
  
  <!-- Car icon (simplified modern car shape) -->
  <g transform="translate(128, 140)">
    <!-- Car body -->
    <path d="M -60 -10 L -50 -35 L -20 -45 L 20 -45 L 50 -35 L 60 -10 Z" 
          fill="url(#carGradient)" stroke="#1e40af" stroke-width="3"/>
    
    <!-- Car windows -->
    <path d="M -45 -35 L -40 -40 L -10 -40 L -5 -35 Z" 
          fill="#60a5fa" opacity="0.6"/>
    <path d="M 5 -35 L 10 -40 L 40 -40 L 45 -35 Z" 
          fill="#60a5fa" opacity="0.6"/>
    
    <!-- Car base -->
    <rect x="-65" y="-10" width="130" height="20" rx="5" 
          fill="url(#carGradient)" stroke="#1e40af" stroke-width="3"/>
    
    <!-- Left wheel -->
    <circle cx="-40" cy="10" r="12" fill="#1e293b" stroke="#334155" stroke-width="2"/>
    <circle cx="-40" cy="10" r="6" fill="#475569"/>
    
    <!-- Right wheel -->
    <circle cx="40" cy="10" r="12" fill="#1e293b" stroke="#334155" stroke-width="2"/>
    <circle cx="40" cy="10" r="6" fill="#475569"/>
    
    <!-- Headlight -->
    <circle cx="58" cy="-5" r="3" fill="#fbbf24"/>
  </g>
  
  <!-- Analytics wave/signal lines -->
  <g transform="translate(128, 80)" opacity="0.9">
    <!-- Signal waves -->
    <path d="M -30 0 Q -20 -10, -10 0 T 10 0 T 30 0" 
          stroke="#22d3ee" stroke-width="4" fill="none" stroke-linecap="round"/>
    <path d="M -35 8 Q -25 -2, -15 8 T 5 8 T 25 8" 
          stroke="#22d3ee" stroke-width="3" fill="none" stroke-linecap="round" opacity="0.7"/>
    <path d="M -40 15 Q -30 5, -20 15 T 0 15 T 20 15" 
          stroke="#22d3ee" stroke-width="2" fill="none" stroke-linecap="round" opacity="0.5"/>
  </g>
  
  <!-- UBI text badge (optional, small) -->
  <g transform="translate(128, 50)">
    <rect x="-25" y="-12" width="50" height="24" rx="12" 
          fill="#22d3ee" opacity="0.9"/>
    <text x="0" y="5" text-anchor="middle" 
          font-family="Arial, sans-serif" font-size="16" font-weight="bold" 
          fill="#0a1018">UBI</text>
  </g>
</svg>

